# xmcd
#
# Track frame offsets:
#	150
#	13285
#	26446
#	40629
#	53970
#	68375
#	81920
#	95337
#	108462
#	122816
#	136301
#	149011
#	163786
#	176155
#
# Disc length: 2524 seconds
#
# Revision: 1
# Processed by: cddbd v1.5.1PL0 Copyright (c) Steve Scherf et al.
# Submitted via: EasyCDDAExtractor 7.0.6.1
#
DISCID=c009da0e
DTITLE=Various Artist - Homenaje a los Panchos - Gitano Sax y Trio
DYEAR=1999
DGENRE=Blues
TTITLE0=Jesús Navarro - Rayito de luna
TTITLE1=Claudio Estrada - Contigo
TTITLE2=Alfredo Gil - Amor no te vayas sin mi
TTITLE3=Carmelo Larrea - Camino verde
TTITLE4=Alfredo Gil - Si tu me dices ven
TTITLE5=Chago Alvarádo - Siete notas de amor
TTITLE6=Herivelto Martins/Alfredo Gil - Caminemos
TTITLE7=Pepe Guizar - Sin ti
TTITLE8=Tito Junco - Nosotros
TTITLE9=Rafael Hernández - No me quieras tanto
TTITLE10=Saverio Seracini - Vicenzo D'Acquisito - La hiedra
TTITLE11=Alfredo Gil - Un siglo de ausencia
TTITLE12=Alberto Domínguez - Di que no es verdad
TTITLE13=Alfredo Gil - José de Jesús Navarro - Sin un amor
EXTD=
EXTT0=
EXTT1=
EXTT2=
EXTT3=
EXTT4=
EXTT5=
EXTT6=
EXTT7=
EXTT8=
EXTT9=
EXTT10=
EXTT11=
EXTT12=
EXTT13=
PLAYORDER=
